<?xml version="1.0" standalone="no"?><!DOCTYPE svg PUBLIC "-//W3C//DTD SVG 1.1//EN" "http://www.w3.org/Graphics/SVG/1.1/DTD/svg11.dtd"><svg t="1565682364298" class="icon" viewBox="0 0 1024 1024" version="1.1" xmlns="http://www.w3.org/2000/svg" p-id="13222" xmlns:xlink="http://www.w3.org/1999/xlink" width="200" height="200"><defs><style type="text/css"></style></defs><path d="M845.335697 215.809137 171.421045 215.809137c-61.9975 0-112.31348 50.312896-112.31348 112.307855l0 365.022531c0 61.993936 50.314957 112.307855 112.31348 112.307855l673.914652 0c61.998523 0 112.314504-50.313919 112.314504-112.307855L957.650201 328.118016C957.650201 266.122033 907.33422 215.809137 845.335697 215.809137zM115.264816 405.586388l149.345379 110.639866L115.264816 625.370047 115.264816 405.586388zM901.493972 693.140547c0 30.978549-25.244975 56.151881-56.158275 56.151881L171.421045 749.292428c-31.016658 0-56.156228-25.173332-56.156228-56.151881l196.774495-143.709029 145.799478 107.443058c14.986933 11.160177 32.720533 16.826224 50.52372 16.826224 17.802164 0 35.571581-5.666046 50.522697-16.826224l149.901057-109.877503L901.493972 693.140547 901.493972 693.140547zM901.493972 625.370047l-142.844048-112.307855 143.225757-111.509676L901.493972 625.370047zM542.055223 593.939197c-9.839492 7.337105-21.45347 11.230786-33.693737 11.230786-12.239244 0-23.922809-3.89368-33.728531-11.230786l-116.102938-83.310428-23.367131-17.525142-219.897046-164.986635 0 0c0-30.945803 25.13957-56.153928 56.156228-56.153928l673.914652 0c30.9133 0 56.158275 25.208125 56.158275 56.153928L542.055223 593.939197z" p-id="13223"></path></svg>