<?xml version="1.0" encoding="utf-8"?>
<!-- Generator: Adobe Illustrator 23.0.3, SVG Export Plug-In . SVG Version: 6.00 Build 0)  -->
<svg version="1.1" id="レイヤー_1" xmlns="http://www.w3.org/2000/svg" xmlns:xlink="http://www.w3.org/1999/xlink" x="0px"
	 y="0px" viewBox="0 0 36 36" style="enable-background:new 0 0 36 36;" xml:space="preserve">
<style type="text/css">
	.st0{fill:#FFFFFF;}
	.st1{fill:#CCCCCC;}
	.st2{fill:#242424;}
</style>
<g>
	<g>
		<circle class="st0" cx="18" cy="18" r="18"/>
		<path class="st1" d="M18,33C9.7,33,3,26.3,3,18S9.7,3,18,3s15,6.7,15,15S26.3,33,18,33 M18,36c9.9,0,18-8.1,18-18S27.9,0,18,0
			S0,8.1,0,18S8.1,36,18,36L18,36z"/>
	</g>
	<path class="st2" d="M11.3,14.7c0.3,0,0.5,0.1,0.7,0.3l6.3,6.3l6.3-6.3c0.4-0.4,1-0.4,1.4,0s0.4,1,0,1.4l-7,7
		c-0.2,0.2-0.4,0.3-0.7,0.3l0,0c-0.3,0-0.5-0.1-0.7-0.3l-7-7c-0.4-0.4-0.4-1,0-1.4C10.8,14.8,11.1,14.7,11.3,14.7z"/>
</g>
</svg>
