<?xml version="1.0" standalone="no"?><!DOCTYPE svg PUBLIC "-//W3C//DTD SVG 1.1//EN" "http://www.w3.org/Graphics/SVG/1.1/DTD/svg11.dtd"><svg t="1565341093881" class="icon" viewBox="0 0 1024 1024" version="1.1" xmlns="http://www.w3.org/2000/svg" p-id="8608" xmlns:xlink="http://www.w3.org/1999/xlink" width="200" height="200"><defs><style type="text/css"></style></defs><path d="M874.4 228.5H145.7c-45.2 0-82 36.7-82 81.9v455.5c0 45.1 36.8 81.9 82 81.9h728.7c45.2 0 82-36.7 82-81.9V310.4c-0.1-45.2-36.8-81.9-82-81.9zM571.8 551.7c-21 19.3-41.9 28.5-62.2 27.5-29.2-1.5-50.7-23.8-52.3-25.4l-1-1.2-294.1-264.1h693.2C713 421.1 617.7 509.6 571.8 551.7zM356.7 544L123.8 743.2V334.8L356.7 544z m45 40.4l12.1 10.8c7.6 8.1 41.8 41.2 92.4 44h0.3c1.8 0.1 4.1 0.2 6.3 0.2 34.7 0 68.3-14.6 99.7-43.4 3.6-3.3 7.5-6.9 11.6-10.7l236.8 202.5H164l237.7-203.4z m266.9-40.2c72.1-66.7 172.7-160.4 227.7-211.7V739L668.6 544.2z" p-id="8609" fill="#000000"></path></svg>