<?xml version="1.0" encoding="utf-8"?>
<!-- Generator: Adobe Illustrator 23.0.3, SVG Export Plug-In . SVG Version: 6.00 Build 0)  -->
<svg version="1.1" id="Capa_1" xmlns="http://www.w3.org/2000/svg" xmlns:xlink="http://www.w3.org/1999/xlink" x="0px" y="0px"
	 viewBox="0 0 24 21.9" style="enable-background:new 0 0 24 21.9;" xml:space="preserve">
<style type="text/css">
	.st0{fill:#FFFFFF;}
</style>
<g>
	<path class="st0" d="M21.1,0H12c-1.6,0-2.9,1.3-2.9,2.9v4H2.9C1.3,6.9,0,8.2,0,9.8v6.6c0,1.6,1.3,2.9,2.9,2.9h8.4l2.6,2.4
		c0.1,0.1,0.3,0.2,0.4,0.2c0.1,0,0.2,0,0.3-0.1c0.2-0.1,0.3-0.3,0.3-0.5v-7c0-0.3-0.3-0.6-0.6-0.6c-0.3,0-0.6,0.3-0.6,0.6v5.6
		l-1.8-1.6c-0.1-0.1-0.3-0.2-0.4-0.2H2.8c-0.9,0-1.7-0.7-1.7-1.7V9.8c0-0.9,0.8-1.7,1.7-1.7h6.2v6.3c0,0.1,0,0.3,0.1,0.4
		c0.2,0.3,0.6,0.4,0.9,0.1l2.2-2c0.1,0,0.1-0.1,0.2-0.1c0.1-0.1,0.2-0.2,0.3-0.3c0,0,0.2,0,0.3,0c0.1,0,0.2,0,0.4,0h7.7
		c1.6,0,2.9-1.3,2.9-2.9V2.9C24,1.3,22.7,0,21.1,0z M21.2,11.2h-7.7c-0.1,0-0.3,0-0.4,0c-0.7,0-0.9,0.1-1.4,0.6c0,0-0.1,0.1-0.2,0.1
		L10.3,13V7.5V2.9c0-0.9,0.8-1.7,1.7-1.7h9.1c0.9,0,1.7,0.7,1.7,1.7l0,6.7C22.8,10.5,22.1,11.2,21.2,11.2z"/>
	<path class="st0" d="M4.5,12.4c-0.3,0-0.6,0.3-0.6,0.6c0,0.3,0.3,0.6,0.6,0.6h0c0.3,0,0.6-0.2,0.6-0.6C5.1,12.7,4.8,12.4,4.5,12.4
		L4.5,12.4z"/>
	<path class="st0" d="M6.5,12.4c-0.3,0-0.6,0.3-0.6,0.6c0,0.3,0.3,0.6,0.6,0.6h0c0.3,0,0.6-0.2,0.6-0.6C7.2,12.7,6.9,12.4,6.5,12.4
		L6.5,12.4z"/>
	<path class="st0" d="M13.5,5.7L13.5,5.7c-0.4,0-0.7,0.3-0.6,0.6c0,0.3,0.3,0.6,0.6,0.6h0c0.3,0,0.6-0.2,0.6-0.6
		C14.1,6,13.8,5.7,13.5,5.7z"/>
	<path class="st0" d="M15.5,5.7L15.5,5.7c-0.4,0-0.7,0.3-0.6,0.6c0,0.3,0.3,0.6,0.6,0.6h0c0.3,0,0.6-0.2,0.6-0.6
		C16.2,6,15.9,5.7,15.5,5.7z"/>
	<path class="st0" d="M17.6,5.7L17.6,5.7C17.2,5.7,17,6,17,6.3c0,0.3,0.3,0.6,0.6,0.6h0c0.3,0,0.6-0.2,0.6-0.6
		C18.2,6,18,5.7,17.6,5.7z"/>
	<path class="st0" d="M19.7,5.7L19.7,5.7c-0.4,0-0.7,0.3-0.6,0.6c0,0.3,0.3,0.6,0.6,0.6h0c0.3,0,0.6-0.2,0.6-0.6
		C20.3,6,20,5.7,19.7,5.7z"/>
</g>
</svg>
