<?xml version="1.0" standalone="no"?><!DOCTYPE svg PUBLIC "-//W3C//DTD SVG 1.1//EN" "http://www.w3.org/Graphics/SVG/1.1/DTD/svg11.dtd"><svg t="1565340342401" class="icon" viewBox="0 0 1024 1024" version="1.1" xmlns="http://www.w3.org/2000/svg" p-id="4803" xmlns:xlink="http://www.w3.org/1999/xlink" width="200" height="200"><defs><style type="text/css"></style></defs><path d="M468.992 1011.712c-4.096 0-6.144 0-10.24-2.048L32.768 858.112c-12.288-4.096-20.48-16.384-20.48-28.672V288.768c0-10.24 4.096-18.432 12.288-24.576s18.432-8.192 28.672-4.096l425.984 151.552c12.288 4.096 20.48 16.384 20.48 28.672v540.672c0 10.24-4.096 18.432-12.288 24.576-6.144 4.096-12.288 6.144-18.432 6.144z m-395.264-204.8l364.544 129.024V462.848L73.728 333.824v473.088zM555.008 1011.712c-6.144 0-12.288-2.048-18.432-6.144-8.192-6.144-12.288-14.336-12.288-24.576V440.32c0-12.288 8.192-24.576 20.48-28.672l425.984-151.552c10.24-4.096 20.48-2.048 28.672 4.096s12.288 14.336 12.288 24.576v540.672c0 12.288-8.192 24.576-20.48 28.672l-425.984 151.552c-2.048 0-6.144 2.048-10.24 2.048z m30.72-548.864v475.136l364.544-129.024V333.824l-364.544 129.024z" fill="#ff8e05" p-id="4804"></path><path d="M512 399.36c-4.096 0-6.144 0-10.24-2.048L53.248 237.568c-12.288-4.096-20.48-16.384-20.48-28.672 0-12.288 8.192-24.576 20.48-28.672l448.512-155.648c6.144-2.048 14.336-2.048 20.48 0l448.512 155.648c12.288 4.096 20.48 16.384 20.48 28.672 0 12.288-8.192 24.576-20.48 28.672l-448.512 159.744c-4.096 2.048-6.144 2.048-10.24 2.048zM155.648 210.944L512 337.92l356.352-126.976-356.352-122.88-356.352 122.88z" fill="#ff8e05" p-id="4805"></path></svg>