<?xml version="1.0" standalone="no"?><!DOCTYPE svg PUBLIC "-//W3C//DTD SVG 1.1//EN" "http://www.w3.org/Graphics/SVG/1.1/DTD/svg11.dtd"><svg t="1565340237320" class="icon" viewBox="0 0 1248 1024" version="1.1" xmlns="http://www.w3.org/2000/svg" p-id="3194" xmlns:xlink="http://www.w3.org/1999/xlink" width="243.75" height="200"><defs><style type="text/css"></style></defs><path d="M1177.849756 389.244878L632.632195 945.95122c-4.645463 4.670439-9.290927 4.670439-13.93639 0L73.428293 389.269854c-4.620488-4.670439-4.620488-9.315902 0-13.986342L368.090537 74.752c2.322732-2.322732 4.645463-2.322732 6.968195-2.322732h501.160585c2.322732 0 4.645463 0 6.993171 2.322732L1177.849756 375.258537c4.620488 4.670439 4.620488 9.315902 0 13.986341m45.280781-66.95961L934.012878 27.42322C915.805659 9.141073 893.052878 0 870.275122 0h-491.769756c-22.777756 0-45.530537 9.141073-63.737756 27.42322L25.624976 322.285268c-34.166634 36.564293-34.166634 93.708488 0 128l535.027512 546.291512C576.586927 1014.858927 599.364683 1024 624.390244 1024c22.777756 0 45.530537-9.141073 63.737756-27.42322l535.027512-546.291512c34.166634-34.291512 34.166634-93.708488 0-128" p-id="3195" fill="#22a2c3"></path><path d="M824.070244 310.721561l-20.929561 21.004488c-100.052293 92.409756-265.265951 92.409756-365.34322 0l-20.929561-20.979512c-16.284098-14.73561-41.884098-14.73561-55.845463 0-13.986341 14.685659-16.284098 37.788098 0 52.498731l23.277268 20.979512C449.436098 445.140293 537.874732 474.536585 623.965659 474.536585s174.504585-29.396293 239.665951-90.311805l23.277268-20.979512c16.284098-14.710634 16.284098-37.813073 0-52.523707-23.277268-14.685659-46.554537-14.685659-62.838634 0" p-id="3196" fill="#22a2c3"></path></svg>