<?xml version="1.0" encoding="utf-8"?>
<!-- Generator: Adobe Illustrator 23.0.3, SVG Export Plug-In . SVG Version: 6.00 Build 0)  -->
<svg version="1.1" id="Capa_1" xmlns="http://www.w3.org/2000/svg" xmlns:xlink="http://www.w3.org/1999/xlink" x="0px" y="0px"
	 viewBox="0 0 32 32" style="enable-background:new 0 0 32 32;" xml:space="preserve">
<style type="text/css">
	.st0{fill:#FFFFFF;}
</style>
<g>
	<path class="st0" d="M31.8,0.2c-0.2-0.2-0.5-0.2-0.7-0.1L10.2,12.3c-0.1,0-0.1,0.1-0.2,0.2l-6.3,3.8c-0.2,0.1-0.3,0.4-0.3,0.6
		s0.2,0.5,0.4,0.5l9.1,2.8l4,7.3c0,0,0,0,0,0c0.1,0.1,0.2,0.2,0.3,0.3c0.1,0,0.2,0,0.2,0c0.2,0,0.3-0.1,0.4-0.2l4.6-4.5l8.7,2.7
		c0.1,0,0.1,0,0.2,0c0.2,0,0.4-0.1,0.5-0.2c0.1-0.1,0.1-0.3,0.1-0.4V0.6C32,0.5,31.9,0.3,31.8,0.2z M7.3,16.6C7,16.5,7,16.2,7.2,16
		l3.6-2.2c0.1,0,0.2,0,0.3-0.1L27.8,3.6L13,18.5L7.3,16.6z M16.9,20c-0.1,0.1-0.4,0.4-0.4,1.4l0,1.9l-1.9-4.2l11.6-12L16.9,20z
		 M18.1,25.7v-3.9l3.1,0.9L18.1,25.7z M19,20.4L30.4,3.8l0,20.1L19,20.4z"/>
	<path class="st0" d="M10.3,21.7c-0.2-0.2-0.6-0.2-0.9,0l-5.3,5.4c-0.2,0.2-0.2,0.6,0,0.9c0.1,0.1,0.3,0.2,0.4,0.2
		c0.2,0,0.3-0.1,0.4-0.2l5.3-5.4C10.5,22.4,10.5,22,10.3,21.7z"/>
	<path class="st0" d="M2.2,29l-2,1.9c-0.2,0.2-0.2,0.6,0,0.9C0.3,31.9,0.5,32,0.6,32s0.3-0.1,0.4-0.2l2-1.9c0.2-0.2,0.2-0.6,0-0.9
		C2.8,28.8,2.4,28.8,2.2,29z"/>
	<path class="st0" d="M12.7,26.2l-3.1,3.1c-0.2,0.2-0.2,0.6,0,0.9c0.1,0.1,0.3,0.2,0.4,0.2s0.3-0.1,0.4-0.2l3.1-3.1
		c0.2-0.2,0.2-0.6,0-0.9C13.3,26,12.9,26,12.7,26.2z"/>
	<path class="st0" d="M23.3,26l-4.8,4.8c-0.2,0.2-0.2,0.6,0,0.9c0.1,0.1,0.3,0.2,0.4,0.2s0.3-0.1,0.4-0.2l4.8-4.8
		c0.2-0.2,0.2-0.6,0-0.9C24,25.8,23.6,25.8,23.3,26z"/>
</g>
</svg>
